<?xml version="1.0" standalone="no"?>
<!DOCTYPE svg PUBLIC "-//W3C//DTD SVG 20010904//EN"
 "http://www.w3.org/TR/2001/REC-SVG-20010904/DTD/svg10.dtd">
<svg version="1.0" xmlns="http://www.w3.org/2000/svg"
 width="626.000000pt" height="626.000000pt" viewBox="0 0 626.000000 626.000000"
 preserveAspectRatio="xMidYMid meet">

<g transform="translate(0.000000,626.000000) scale(0.100000,-0.100000)"
fill="#000000" stroke="none">
<path d="M2223 5545 c-181 -56 -329 -270 -394 -570 -27 -120 -36 -359 -19
-506 49 -449 266 -814 525 -884 244 -67 457 96 569 435 126 381 69 908 -135
1239 -57 92 -150 193 -219 236 -95 60 -231 81 -327 50z m224 -134 c114 -54
230 -202 303 -385 170 -429 116 -1012 -114 -1241 -63 -62 -114 -87 -188 -93
-147 -11 -313 143 -417 388 -125 293 -146 706 -50 995 99 297 277 425 466 336z"/>
<path d="M3800 5540 c-202 -74 -372 -312 -459 -640 -68 -254 -68 -598 -1 -840
57 -205 185 -387 318 -452 61 -30 74 -33 162 -33 83 0 103 4 154 27 156 74
271 210 369 438 139 325 154 791 37 1113 -63 171 -177 316 -295 372 -81 39
-204 45 -285 15z m200 -111 c125 -37 251 -222 304 -444 96 -399 -10 -917 -237
-1161 -154 -165 -304 -179 -442 -40 -242 244 -289 843 -99 1281 78 181 201
321 319 363 40 14 109 15 155 1z"/>
<path d="M789 4372 c-196 -65 -301 -266 -301 -573 0 -247 72 -503 210 -753 63
-115 125 -198 217 -295 94 -98 173 -157 276 -205 281 -133 531 3 606 329 26
114 23 324 -6 465 -98 468 -400 896 -718 1016 -92 35 -207 41 -284 16z m268
-141 c141 -66 277 -195 388 -366 296 -455 337 -1045 83 -1212 -58 -39 -167
-44 -249 -14 -186 70 -380 274 -513 540 -59 117 -120 298 -140 416 -20 115
-20 310 -1 394 58 243 226 338 432 242z"/>
<path d="M5275 4384 c-81 -21 -155 -52 -218 -93 -282 -185 -506 -551 -594
-971 -26 -125 -23 -368 5 -472 28 -103 64 -171 125 -236 189 -199 488 -141
761 149 183 194 331 488 393 779 25 119 26 408 1 498 -60 216 -197 342 -378
348 -41 2 -84 1 -95 -2z m191 -142 c81 -41 140 -134 169 -266 25 -112 16 -322
-19 -463 -102 -408 -367 -773 -632 -873 -74 -27 -173 -27 -231 1 -222 108
-254 548 -70 979 134 314 349 554 563 629 73 26 161 23 220 -7z"/>
<path d="M2940 3440 c-149 -37 -282 -113 -386 -222 -81 -84 -121 -150 -173
-283 -86 -218 -209 -436 -340 -597 -34 -42 -123 -134 -198 -205 -74 -70 -157
-159 -184 -196 -185 -263 -185 -640 0 -904 144 -205 369 -333 585 -333 101 0
134 8 321 75 174 62 274 91 433 124 l133 28 132 -29 c164 -35 271 -66 435
-124 182 -66 217 -74 312 -74 188 0 369 85 517 243 243 261 281 642 95 962
-34 57 -69 94 -284 300 -190 182 -356 445 -463 733 -21 57 -56 131 -77 165
-113 174 -297 299 -503 342 -101 20 -261 18 -355 -5z m352 -119 c155 -40 297
-134 383 -256 29 -40 65 -111 92 -183 121 -315 309 -607 509 -787 178 -162
222 -212 270 -309 98 -200 98 -403 -2 -606 -104 -210 -324 -359 -529 -360 -68
0 -97 6 -195 41 -155 55 -339 112 -430 134 l-74 18 34 26 c66 48 362 346 401
403 123 180 175 386 138 547 -28 123 -115 236 -226 294 -170 88 -344 70 -473
-50 l-60 -55 -55 50 c-100 91 -210 125 -337 104 -174 -30 -309 -148 -360 -315
-17 -58 -20 -86 -15 -175 8 -166 64 -302 187 -455 55 -69 303 -309 364 -353
l29 -21 -94 -23 c-105 -26 -238 -68 -409 -129 -176 -62 -285 -56 -442 26 -143
74 -272 229 -325 387 -24 71 -27 96 -27 211 0 115 3 140 27 211 40 119 105
212 228 324 129 119 200 194 273 289 116 151 239 375 326 595 25 64 61 133 88
168 159 212 449 314 704 249z m-361 -1137 c67 -37 118 -101 159 -203 18 -45
36 -81 40 -81 4 0 15 21 25 48 55 147 127 230 223 258 138 40 295 -34 363
-172 59 -119 49 -265 -27 -416 -50 -99 -100 -161 -251 -309 -147 -145 -207
-194 -282 -229 l-53 -24 -76 39 c-63 33 -105 67 -236 195 -172 168 -219 225
-271 328 -131 259 -61 502 168 584 71 25 149 19 218 -18z"/>
</g>
</svg>
